<?xml version="1.0" encoding="UTF-8"?>
<svg viewBox="0 0 33 24" version="1.1" xmlns="http://www.w3.org/2000/svg" xmlns:xlink="http://www.w3.org/1999/xlink">
    <!-- Generator: Sketch 56.3 (81716) - https://sketch.com -->
    <title>dashboad</title>
    <desc>Created with Sketch.</desc>
    <g id="Page-1" stroke="none" stroke-width="1" fill="none" fill-rule="evenodd">
        <g id="display" transform="translate(-280.000000, -679.000000)" fill="currentColor" fill-rule="nonzero">
            <g id="dashboad" transform="translate(280.000000, 679.000000)">
                <path d="M16.5,0 C7.392,0.00970873786 0.009625,7.45631068 0,16.6435506 L0,19.9597781 C0.00275,22.1900139 1.794375,23.9972261 4.005375,24 L28.994625,24 C31.205625,23.9972261 32.99725,22.1900139 33,19.9597781 L33,16.6435506 C32.990375,7.45631068 25.608,0.00970873786 16.5,0 Z M28.994625,21.220527 L4.005375,21.220527 C3.315125,21.2191401 2.754125,20.6560333 2.75,19.9597781 L2.75,18.1026352 L6.1875,18.1026352 C6.75675,18.1026352 7.21875,17.6366158 7.21875,17.0624133 C7.21875,16.4882108 6.75675,16.0221914 6.1875,16.0221914 L2.76375,16.0221914 C2.838,14.3051318 3.229875,12.6158114 3.920125,11.0443828 L6.71,12.6726768 C7.203625,12.9597781 7.83475,12.7891817 8.119375,12.2912621 C8.404,11.7933426 8.234875,11.1567268 7.74125,10.8696255 L4.895,9.20527046 C5.798375,7.77669903 6.953375,6.52704577 8.300875,5.51595007 L9.854625,8.23023578 C10.14475,8.72122053 10.769,8.889043 11.264,8.61165049 C11.757625,8.32454924 11.925375,7.68793343 11.64075,7.19001387 C11.64075,7.19001387 11.64075,7.19001387 11.64075,7.19001387 L10.044375,4.40083218 C11.72325,3.49514563 13.569875,2.95423024 15.46875,2.81276006 L15.46875,5.96948682 C15.46875,6.54368932 15.93075,7.00970874 16.5,7.00970874 C17.06925,7.00970874 17.53125,6.54368932 17.53125,5.96948682 L17.53125,2.81276006 C21.85975,3.14424411 25.7785,5.51733703 28.105,9.21359223 L25.25875,10.8779473 C24.765125,11.1650485 24.596,11.8016644 24.880625,12.2995839 C25.16525,12.7975035 25.796375,12.9680999 26.29,12.6809986 L29.079875,11.0554785 C29.76875,12.6241331 30.160625,14.3079057 30.23625,16.0221914 L26.8125,16.0221914 C26.24325,16.0221914 25.78125,16.4882108 25.78125,17.0624133 C25.78125,17.6366158 26.24325,18.1026352 26.8125,18.1026352 L30.25,18.1026352 L30.25,19.9570042 C30.251375,20.6574202 29.689,21.2246879 28.994625,21.2260749 L28.994625,21.2260749 L28.994625,21.220527 Z M22.776875,6.62552011 C22.29975,6.31345354 21.66175,6.44937587 21.352375,6.93065187 C21.352375,6.93065187 21.351,6.93203883 21.351,6.93203883 L17.226,13.3384189 C15.56225,12.9320388 13.8875,13.962552 13.484625,15.6407767 C13.08175,17.3190014 14.103375,19.0083218 15.767125,19.4147018 C17.430875,19.8210818 19.105625,18.7905687 19.5085,17.112344 C19.729875,16.1927878 19.526375,15.221914 18.954375,14.4729542 L23.079375,8.06518724 C23.38875,7.58391123 23.254,6.93897365 22.776875,6.62552011 Z" id="Shape"></path>
            </g>
        </g>
    </g>
</svg>
