<svg xmlns="http://www.w3.org/2000/svg" version="1.1" xmlns:xlink="http://www.w3.org/1999/xlink" xmlns:svgjs="http://svgjs.com/svgjs" viewBox="0 0 24 24">
  <title>logout 1 alternate (From Streamline App : https://app.streamlineicons.com)</title>
  <g transform="matrix(1,0,0,1,0,0)">
    <path d="M13.5,17.5c-0.552,0-1,0.448-1,1V21c0,0.276-0.224,0.5-0.5,0.5H2.5C2.224,21.5,2,21.276,2,21V3c0-0.276,0.224-0.5,0.5-0.5 H12c0.276,0,0.5,0.224,0.5,0.5v2.5c0,0.552,0.448,1,1,1s1-0.448,1-1v-3c0-1.105-0.895-2-2-2H2c-1.105,0-2,0.895-2,2v19 c0,1.105,0.895,2,2,2h10.5c1.105,0,2-0.895,2-2v-3C14.5,17.948,14.052,17.5,13.5,17.5z M23.555,11.669l-6-4 c-0.459-0.307-1.08-0.183-1.387,0.277C16.059,8.11,16,8.303,16,8.5V11H7c-0.828,0-1.5,0.672-1.5,1.5S6.172,14,7,14h9v2.5 c0.008,0.549,0.451,0.992,1,1c0.198,0,0.391-0.058,0.555-0.168l6-4c0.46-0.306,0.584-0.927,0.277-1.387 C23.759,11.835,23.665,11.741,23.555,11.669L23.555,11.669z" stroke="none" fill="#000000" stroke-width="0" stroke-linecap="round" stroke-linejoin="round"></path>
  </g>
</svg>
