<svg xmlns="http://www.w3.org/2000/svg" version="1.1" xmlns:xlink="http://www.w3.org/1999/xlink" xmlns:svgjs="http://svgjs.com/svgjs" viewBox="0 0 24 24">
  <title>notes clock (From Streamline App : https://app.streamlineicons.com)</title>
  <g transform="matrix(1,0,0,1,0,0)">
    <path d="M12,4.75V5c0,0.552,0.448,1,1,1s1-0.448,1-1V4.75c0-0.138,0.112-0.25,0.25-0.25h1.25v4.7c0,0.135,0.109,0.244,0.243,0.245 c0.019,0,0.038-0.002,0.057-0.007c0.479-0.108,0.968-0.17,1.459-0.187c0.133-0.002,0.239-0.11,0.24-0.243V4.5c0-1.105-0.895-2-2-2 H14.25C14.112,2.5,14,2.388,14,2.25V1c0-0.552-0.448-1-1-1s-1,0.448-1,1v1.25c0,0.138-0.112,0.25-0.25,0.25h-1.5 C10.112,2.5,10,2.388,10,2.25V1c0-0.552-0.448-1-1-1S8,0.448,8,1v1.25C8,2.388,7.888,2.5,7.75,2.5h-1.5C6.112,2.5,6,2.388,6,2.25V1 c0-0.552-0.448-1-1-1S4,0.448,4,1v1.25C4,2.388,3.888,2.5,3.75,2.5H2c-1.105,0-2,0.895-2,2v13c0,1.105,0.895,2,2,2h7.2 c0.135,0,0.244-0.109,0.245-0.243c0-0.019-0.002-0.038-0.007-0.057c-0.108-0.479-0.17-0.968-0.187-1.459 c-0.002-0.133-0.11-0.239-0.243-0.24H2V4.5h1.75C3.888,4.5,4,4.612,4,4.75V5c0,0.552,0.448,1,1,1s1-0.448,1-1V4.75 C6,4.612,6.112,4.5,6.25,4.5h1.5C7.888,4.5,8,4.612,8,4.75V5c0,0.552,0.448,1,1,1s1-0.448,1-1V4.75c0-0.138,0.112-0.25,0.25-0.25 h1.5C11.888,4.5,12,4.612,12,4.75z M17.25,10.5c-3.728,0-6.75,3.022-6.75,6.75S13.522,24,17.25,24S24,20.978,24,17.25 C23.996,13.524,20.976,10.504,17.25,10.5z M17.25,22c-2.623,0-4.75-2.127-4.75-4.75s2.127-4.75,4.75-4.75S22,14.627,22,17.25l0,0 C21.997,19.872,19.872,21.997,17.25,22z M19.25,16.25H18.5c-0.138,0-0.25-0.112-0.25-0.25v-1.25c0-0.552-0.448-1-1-1s-1,0.448-1,1 v2.5c0,0.552,0.448,1,1,1h2c0.552,0,1-0.448,1-1S19.802,16.25,19.25,16.25z" stroke="none" fill="currentColor" stroke-width="0" stroke-linecap="round" stroke-linejoin="round"></path>
  </g>
</svg>
