<svg xmlns="http://www.w3.org/2000/svg" version="1.1" xmlns:xlink="http://www.w3.org/1999/xlink" xmlns:svgjs="http://svgjs.com/svgjs" viewBox="0 0 24 24" height="24" width="24"><title>gauge dashboard alternate (From Streamline App : https://app.streamlineicons.com)</title><g transform="matrix(1,0,0,1,0,0)"><path d="M12,3.348c-6.624,0.007-11.993,5.376-12,12v2.391c0.002,1.608,1.305,2.911,2.913,2.913h18.174 c1.608-0.002,2.911-1.305,2.913-2.913v-2.391C23.993,8.724,18.624,3.355,12,3.348z M21.087,18.648H2.913 C2.411,18.647,2.003,18.241,2,17.739V16.4h2.5c0.414,0,0.75-0.336,0.75-0.75S4.914,14.9,4.5,14.9H2.01 c0.054-1.238,0.339-2.456,0.841-3.589l2.029,1.174c0.359,0.207,0.818,0.084,1.025-0.275c0.207-0.359,0.084-0.818-0.275-1.025 l-2.07-1.2c0.657-1.03,1.497-1.931,2.477-2.66l1.13,1.957c0.211,0.354,0.665,0.475,1.025,0.275C8.551,9.35,8.673,8.891,8.466,8.532 c0,0,0,0,0,0L7.305,6.521c1.221-0.653,2.564-1.043,3.945-1.145v2.276c0,0.414,0.336,0.75,0.75,0.75s0.75-0.336,0.75-0.75V5.376 c3.148,0.239,5.998,1.95,7.69,4.615l-2.07,1.2c-0.359,0.207-0.482,0.666-0.275,1.025c0.207,0.359,0.666,0.482,1.025,0.275 l2.029-1.172c0.501,1.131,0.786,2.345,0.841,3.581H19.5c-0.414,0-0.75,0.336-0.75,0.75s0.336,0.75,0.75,0.75H22v1.337 c0.001,0.505-0.408,0.914-0.913,0.915h0V18.648z M16.565,8.125c-0.347-0.225-0.811-0.127-1.036,0.22c0,0-0.001,0.001-0.001,0.001 l-3,4.619c-1.21-0.293-2.428,0.45-2.721,1.66s0.45,2.428,1.66,2.721c1.21,0.293,2.428-0.45,2.721-1.66 c0.161-0.663,0.013-1.363-0.403-1.903l3-4.62C17.01,8.816,16.912,8.351,16.565,8.125z" stroke="none" fill="#000000" stroke-width="0" stroke-linecap="round" stroke-linejoin="round"></path></g></svg>