<?xml version="1.0" encoding="UTF-8"?>
<svg width="22px" height="23px" viewBox="0 0 22 23" version="1.1" xmlns="http://www.w3.org/2000/svg" xmlns:xlink="http://www.w3.org/1999/xlink">
    <!-- Generator: Sketch 56.3 (81716) - https://sketch.com -->
    <title>Shape</title>
    <desc>Created with Sketch.</desc>
    <g id="Page-1" stroke="none" stroke-width="1" fill="none" fill-rule="evenodd">
        <g id="emoji" transform="translate(-318.000000, -568.000000)" fill="#E30074">
            <g id="boutton" transform="translate(16.000000, 384.000000)">
                <g id="Delete" transform="translate(283.000000, 0.000000)">
                    <path d="M37.5,191.1875 L22.5,191.1875 C22.224,191.1875 22,191.402167 22,191.666667 L22,205.083333 C22,206.142292 22.895,207 24,207 L36,207 C37.105,207 38,206.142292 38,205.083333 L38,191.666667 C38,191.402167 37.776,191.1875 37.5,191.1875 Z M28.25,203.645833 C28.25,204.042583 27.914,204.364583 27.5,204.364583 C27.086,204.364583 26.75,204.042583 26.75,203.645833 L26.75,195.020833 C26.75,194.624083 27.086,194.302083 27.5,194.302083 C27.914,194.302083 28.25,194.624083 28.25,195.020833 L28.25,203.645833 Z M33.25,203.645833 C33.25,204.042583 32.914,204.364583 32.5,204.364583 C32.086,204.364583 31.75,204.042583 31.75,203.645833 L31.75,195.020833 C31.75,194.624083 32.086,194.302083 32.5,194.302083 C32.914,194.302083 33.25,194.624083 33.25,195.020833 L33.25,203.645833 Z M40,187.833333 L35.25,187.833333 C35.112,187.833333 35,187.726 35,187.59375 L35,186.395833 C35,185.072375 33.881,184 32.5,184 L27.5,184 C26.119,184 25,185.072375 25,186.395833 L25,187.59375 C25,187.726 24.888,187.833333 24.75,187.833333 L20,187.833333 C19.448,187.833333 19,188.262667 19,188.791667 C19,189.320667 19.448,189.75 20,189.75 L40,189.75 C40.552,189.75 41,189.320667 41,188.791667 C41,188.262667 40.552,187.833333 40,187.833333 Z M27,187.59375 L27,186.395833 C27,186.131333 27.224,185.916667 27.5,185.916667 L32.5,185.916667 C32.776,185.916667 33,186.131333 33,186.395833 L33,187.59375 C33,187.726 32.888,187.833333 32.75,187.833333 L27.25,187.833333 C27.112,187.833333 27,187.726 27,187.59375 Z" id="Shape"></path>
                </g>
            </g>
        </g>
    </g>
</svg>