<svg xmlns="http://www.w3.org/2000/svg" version="1.1" xmlns:xlink="http://www.w3.org/1999/xlink"
  xmlns:svgjs="http://svgjs.com/svgjs" viewBox="0 0 24 24">
  <title>bin (From Streamline App : https://app.streamlineicons.com)</title>
  <g transform="matrix(1,0,0,1,0,0)">
    <path
      d="M19.5,7.5h-15C4.224,7.5,4,7.724,4,8v14c0,1.105,0.895,2,2,2h12c1.105,0,2-0.895,2-2V8C20,7.724,19.776,7.5,19.5,7.5z M10.25,20.5c0,0.414-0.336,0.75-0.75,0.75s-0.75-0.336-0.75-0.75v-9c0-0.414,0.336-0.75,0.75-0.75s0.75,0.336,0.75,0.75V20.5z M15.25,20.5c0,0.414-0.336,0.75-0.75,0.75s-0.75-0.336-0.75-0.75v-9c0-0.414,0.336-0.75,0.75-0.75s0.75,0.336,0.75,0.75V20.5z M22,4h-4.75C17.112,4,17,3.888,17,3.75V2.5C17,1.119,15.881,0,14.5,0h-5C8.119,0,7,1.119,7,2.5v1.25C7,3.888,6.888,4,6.75,4H2 C1.448,4,1,4.448,1,5s0.448,1,1,1h20c0.552,0,1-0.448,1-1S22.552,4,22,4z M9,3.75V2.5C9,2.224,9.224,2,9.5,2h5 C14.776,2,15,2.224,15,2.5v1.25C15,3.888,14.888,4,14.75,4h-5.5C9.112,4,9,3.888,9,3.75z"
      stroke="none" fill="currentColor" stroke-width="0" stroke-linecap="round" stroke-linejoin="round"></path>
  </g>
</svg>
